<?xml version="1.0" standalone="no"?>
<!DOCTYPE svg PUBLIC "-//W3C//DTD SVG 20010904//EN"
 "http://www.w3.org/TR/2001/REC-SVG-20010904/DTD/svg10.dtd">
<svg version="1.0" xmlns="http://www.w3.org/2000/svg"
 width="180.000000pt" height="180.000000pt" viewBox="0 0 180.000000 180.000000"
 preserveAspectRatio="xMidYMid meet">
<metadata>
Created by potrace 1.14, written by Peter Selinger 2001-2017
</metadata>
<g transform="translate(0.000000,180.000000) scale(0.100000,-0.100000)"
fill="#000000" stroke="none">
<path d="M463 1432 c-145 -2 -173 -5 -173 -17 0 -9 9 -15 24 -15 13 0 34 -9
47 -19 l24 -19 3 -466 c3 -456 2 -466 -18 -486 -11 -11 -31 -20 -45 -20 -19 0
-25 -5 -25 -21 l0 -22 408 6 c224 3 439 10 477 16 160 25 264 82 306 168 35
70 34 190 -1 253 -33 58 -104 101 -215 131 l-84 22 57 27 c78 37 127 93 142
163 28 137 -45 235 -214 285 -53 15 -321 21 -713 14z m668 -124 c61 -36 79
-65 79 -128 0 -60 -27 -120 -67 -148 -66 -47 -116 -55 -350 -60 l-223 -4 0
187 0 186 258 -3 257 -3 46 -27z m-19 -449 c129 -27 200 -100 200 -202 0 -73
-53 -132 -141 -157 -65 -19 -252 -31 -426 -28 l-170 3 -3 198 -2 197 244 0
c143 0 267 -5 298 -11z"/>
</g>
</svg>
