<svg xmlns="http://www.w3.org/2000/svg" xmlns:xlink="http://www.w3.org/1999/xlink" width="300" height="29.386" viewBox="0 0 300 29.386"><defs><clipPath id="a"><rect width="300" height="29.386" transform="translate(0 0)" fill="none"/></clipPath></defs><g transform="translate(0 0)"><g clip-path="url(#a)"><path d="M154.024,0c-5.8-.039-10.493,1.459-14.279,4.378-3.826,2.92-5.719,6.469-5.719,10.886,0,3.629,1.893,6.943,4.969,9.546,3.708,3.155,8.835,4.575,15.146,4.575a29.879,29.879,0,0,0,7.416-.986c3.037-.789,7.06-2.6,8.282-5.286l-.079-3.983c-.078-2.761.12-2.88,2.959-2.918v-.948H162.031v.948a4.43,4.43,0,0,1,2.523.394c.632.473.473,2.6.473,3.431l-.037,2.406c-.909,1.736-3,2.682-4.5,3.274a19.72,19.72,0,0,1-6.271,1.183,17.09,17.09,0,0,1-9.586-2.682,11.669,11.669,0,0,1-5.127-9.584c0-4.221,2.683-7.693,5.838-9.862a16.719,16.719,0,0,1,16.685-.709,15.318,15.318,0,0,1,5.64,5.719l.906-.355-1.459-6.192A22.147,22.147,0,0,0,160.925.83a32.6,32.6,0,0,0-6.9-.829M15.366.655C11.333.67,7.317.729.04.7L0,1.607c.986,0,1.341-.04,1.932.433.553.475.631.986.631,2.723V23.34c0,1.577.119,3.194-.237,3.628-.512.592-.867.71-2.129.671v.946H15.186c4.1,0,10.846-.118,13.606-2.287a6.2,6.2,0,0,0,2.958-5.483c0-3.747-1.615-4.891-3.076-5.719a19.483,19.483,0,0,0-5.757-1.656,9.545,9.545,0,0,0,3.589-1.815A5.728,5.728,0,0,0,28.6,7.09c0-4.734-5.128-6.232-9.073-6.429-1.468-.01-2.815-.01-4.158-.006M299.921.7l-9.782.039v.829c1.617.079,2.092.119,2.406,1.262a12.493,12.493,0,0,1,.119,2.8V23.655c0,3.273.277,4.023-2.327,4.023v.907H300l-.039-.907c-2.642,0-2.525-1.026-2.525-4.023V5.629c0-3.234-.079-4.062,2.485-4.062ZM43.86.739V1.764a3.247,3.247,0,0,1,1.893.356c.632.394,1.421,2.208,2.367,4.062l11.833,22.4h3.983c2.446-4.851,6.39-12.739,9.427-18.7,2.051-3.943,3.55-7.1,4.141-7.847.356-.435,1.342-.278,1.972-.278V.739L71.194.778v.986c.079,0,2.406-.315,2.169,1.183-.2,1.184-9.427,18.46-10.57,21.221L53.6,6.853a29.665,29.665,0,0,1-1.5-2.958c-.75-1.775.394-2.131,1.972-2.131V.739ZM254.385.766c-.589,0-1.216,0-1.883,0-.887.005-1.846.012-2.87.012H237.011v.868c1.735,0,2.446.513,2.446,2.524V26.139c0,1.5-1.1,1.459-2.446,1.419v1.027h9.86V27.558c-1.618,0-2.564-.156-2.6-2.089v-8.2c1.064.078,2.011,0,3.668,0,.591,0,3.745.04,4.694,0,3.588,0,5.245,4.26,7.179,7.257,1.616,2.525.906,4.063,11.241,4.063,0-.237-.079-.75-.079-.987-4.417.04-5.247-2.6-7.141-5.995-1.773-3.076-2.248-5.088-6.823-5.6,6.942-1.3,8.757-4.456,8.757-8.046-.04-3.627-2.721-5.877-7.1-6.864a21.679,21.679,0,0,0-4.279-.326M95.608.777v.868c1.381,0,1.775.119,2.17.672.394.511.394,1.379.394,2.919V25.508c0,1.815-.71,2.13-2.406,2.169v.908h24.809l2.879-5.758-.906-.356c-.947,1.538-3.116,3.037-6.548,3.037H102.945V4.012c0-1.3.237-1.7.552-2.011.473-.394.71-.316,1.932-.356V.777Zm105.115,0L189.245,22.629c-1.025,1.973-1.419,2.643-1.891,3.55-.554.947-.871,1.579-2.764,1.618v.788h8.56l.04-.906c-1.54.039-2.208-.08-2.248-1.461a6.518,6.518,0,0,1,.986-2.207l1.616-2.84H210.11l1.973,3.351c1.3,2.17.945,2.959-1.382,3.078v.985h10.256V27.52c-2.446,0-2.327-.669-4.5-4.653L204.354.778Zm48.706,2.006c3.033-.018,6.1.134,8.052,1.07,1.656.789,3.037,1.7,3.037,4.458,0,3.9-2.407,4.93-4.222,5.6-3.194.828-8.44.552-12.028.591V2.867c1.537,0,3.342-.071,5.161-.083m-233.7.229c2.417,0,4.783.093,6.086.92,1.694,1.105,2.09,1.894,2.09,3.551a5.5,5.5,0,0,1-1.695,3.471c-2.052,1.657-5.721,1.735-8.442,1.735H7.258V3.026h6.074c.779,0,1.59-.012,2.4-.013M201.669,4.96l6.982,13.094H195.043ZM15.517,15.164c4.01-.011,6.856.144,8.858,1.628a4.934,4.934,0,0,1,2.091,3.826c0,4.576-5.719,4.891-11.36,4.891H7.258V15.175c2.129,0,4.339.039,6.469,0,.622-.005,1.216-.01,1.79-.011" fill-rule="evenodd"/></g></g></svg>