<svg xmlns="http://www.w3.org/2000/svg" viewBox="0 0 100 100"><defs><style>.cls-1{fill:#fff;}</style></defs><g id="Layer_2" data-name="Layer 2"><g id="Layer_1-2" data-name="Layer 1"><path class="cls-1" d="M50,0a50,50,0,1,0,50,50A50.06,50.06,0,0,0,50,0Zm0,92.14A42.14,42.14,0,1,1,92.14,50,42.2,42.2,0,0,1,50,92.14ZM40.67,71.63h0a4.35,4.35,0,0,1-4.35-4.35V32.72a4.35,4.35,0,0,1,4.35-4.35h0A4.35,4.35,0,0,1,45,32.72V67.28A4.35,4.35,0,0,1,40.67,71.63Zm18.66,0h0A4.35,4.35,0,0,1,55,67.28V32.72a4.35,4.35,0,0,1,4.34-4.35h0a4.35,4.35,0,0,1,4.35,4.35V67.28A4.35,4.35,0,0,1,59.33,71.63Z"/></g></g></svg>