<svg xmlns="http://www.w3.org/2000/svg" xmlns:xlink="http://www.w3.org/1999/xlink" width="257" height="269" viewBox="0 0 257 269"><defs><clipPath id="a"><rect width="257" height="269" transform="translate(1071 1953)" fill="#fff" stroke="#707070" stroke-width="1"/></clipPath></defs><g transform="translate(-1071 -1953)" clip-path="url(#a)"><g transform="matrix(0.799, -0.602, 0.602, 0.799, 1020.562, 2063.752)"><g transform="translate(0 0)"><path d="M144.5,245.621l.227.227Zm1.035-.864c-1.309-.436-2.571-.227-3.826-.636a1.518,1.518,0,0,0-.8.065,2,2,0,0,1-.769.088.237.237,0,0,0-.027-.028v.183a1.634,1.634,0,0,1-.644-.077,1.66,1.66,0,0,0-.656-.077.8.8,0,0,1-.782-.536l.01-.01c0-.038,0-.08-.007-.126h-.2a.27.27,0,0,0-.085-.066.985.985,0,0,1-.49-.075.3.3,0,0,1-.116-.086,6.993,6.993,0,0,0-2.727-.836,19.206,19.206,0,0,1-2.372-.781.276.276,0,0,0-.069-.062.955.955,0,0,1-.437-.063.3.3,0,0,1-.194-.111h-.279a.447.447,0,0,1-.4.164l-.009.017a3.084,3.084,0,0,1-1.408-.69h.028a.173.173,0,0,1-.028-.037,1.81,1.81,0,0,1-.909-.245l-.029-.029a.754.754,0,0,1-.007.1,4.9,4.9,0,0,1-2.09,0c-.006-.01-.011-.02-.018-.03a.619.619,0,0,1-.628-.234h-.218c-2.726-.191-5.452-.745-8.179-.672a5.624,5.624,0,0,1-1.817-.245c-.137-.209-.363-.382-.573-.318a2.555,2.555,0,0,1-2.063-.409,2.627,2.627,0,0,0-1.445-.263,5.975,5.975,0,0,1-1.227-.173l0,0a.445.445,0,0,1-.344-.147.319.319,0,0,1-.115-.076c-.981-.609-2.309-.3-3.2-1.182-.563-.545-1.481-.146-2.035-.781-.227-.264-.691-.336-.564-.837l.027-.011c-.495-.219-1.133-.28-1.335-.888l.115.011-.115-.047a.958.958,0,0,0-.134-.093l.134.129h-.236v-.179l-.028-.011-.085-.038c-.219,0-.438,0-.578-.235-.345.172-.645.327-1-.064a1.69,1.69,0,0,0-1.39-.645c-.327,0-.527-.263-.745-.463l-1.063-.963a1.476,1.476,0,0,1-.182-.064q-.089-.051-.172-.109h-.282a.818.818,0,0,1,0-.209l.018,0-.045-.043h0a.39.39,0,0,0-.1-.082l.11.119-.227-.009-.227-.236h.035a.446.446,0,0,1-.044-.037L96,231.017c-3.3-2.118-5.862-5.025-8.461-7.888q-.028-.129-.067-.256l-.242-.126v-.218a.149.149,0,0,1-.034-.035l-.091-.095a.2.2,0,0,1-.112-.052c-.554-.445-1.09-.963-1.908-.563a.427.427,0,0,1-.318,0,1.869,1.869,0,0,0-1.6-.226,2.3,2.3,0,0,0-.5.208,2.339,2.339,0,0,1-.5.119,2.728,2.728,0,0,0-.612.073.537.537,0,0,0-.269.426c0,.169-.183.156-.348.143a1.136,1.136,0,0,0-.152-.007,5.949,5.949,0,0,0-1.136.1c-.99.263-.99.245-.682,1.236.128.418-.581,1.154-1.263,1.181a1.392,1.392,0,0,0-1.381.709H74.992l0-.005a2.224,2.224,0,0,1-1.2.69,2.121,2.121,0,0,1-.819.1l-.065-.009c-.12.657-.58.644-1.035.632a3.216,3.216,0,0,0-.354,0,.683.683,0,0,0-.745.336.836.836,0,0,1-.864.346.582.582,0,0,0-.04-.046l.022.046c-.564-.146-.909.454-1.381.463a.483.483,0,0,1-.041-.189q-.094.083-.185.171h-.209a.291.291,0,0,0-.042-.033.536.536,0,0,1,.042.051c-.263.009-.527.028-.709-.227h.014l-.014-.018a19.507,19.507,0,0,1-3.917-.482,3.517,3.517,0,0,1-2.3-.218,4.976,4.976,0,0,0-1.608-.336c-.581,0-.855-.691-1.2-1.136a.761.761,0,0,1-.034-.094.242.242,0,0,0-.229.238c-.091,1.318-.282,1.454-1.553,1.136v.009a4.219,4.219,0,0,1-2.318-.918c-1.035-.6-2.072-1.2-3.117-1.817a1.763,1.763,0,0,1-.818-.745l.007-.023-.688-.45a1.382,1.382,0,0,1-1.718-.454,4.276,4.276,0,0,1-.827-.937l-2.544-2.272-.014-.011,0,.011a1.679,1.679,0,0,1-1.381-.482,1.76,1.76,0,0,1-1.145-.909l-.227-.236q-.035-.017-.069-.036l-.081,0c-.267.013-.531.026-.3-.457a1.107,1.107,0,0,0-.854-.972,2.155,2.155,0,0,1-1.2-1.021.506.506,0,0,1-.144-.024,1.636,1.636,0,0,1-.291-.119c-.518-.345-1.054-.663-1.209-1.336a1.4,1.4,0,0,0-.564-.964c-.2-.173-.681-.064-.272-.545.055-.064-.082-.2-.2-.218-1.091-.191-1.427-1.145-1.927-1.936-.091-.155-.1-.363-.272-.482a2.877,2.877,0,0,1-.691-1.39.5.5,0,0,1-.164-.145.765.765,0,0,1-.136-.163l-.073-.092a1.278,1.278,0,0,1-.146-.173.7.7,0,0,1-.128-.191l-.118-.2-.146-.209a.917.917,0,0,1-.137-.227.606.606,0,0,1,0-.281.293.293,0,0,1,.1-.161l0,0a1.019,1.019,0,0,1-.682-.636c-.463-1.118-1.39-1.954-1.817-3.062v-.227a.455.455,0,0,1-.227-.473.524.524,0,0,1,.063.052.285.285,0,0,0-.063-.088,1.623,1.623,0,0,0,0-.218c-.482-1.327-1-2.644-1.608-3.926-.4-1.282-1.445-2.317-1.418-3.762a1.09,1.09,0,0,1,0-.163c.073-1.218-.69-2.163-1.072-3.226s-.727-1.927-.981-2.926a4.685,4.685,0,0,0-.467-.973H24.41l-.69-.464c-.209,0-.309.582-.609.146s-.635-1-1.444-.509c-.318.191-.745-.437-1.191-.554l-.052-.021a2.048,2.048,0,0,1-1.542-.883l-.015,0-.043-.046a18.5,18.5,0,0,1-3.2-2.7.135.135,0,0,1-.056-.1l-.107-.112-.064-.039-.024-.018a.727.727,0,0,1-.656-.439l-.01-.006a1.822,1.822,0,0,1-.909-.7,11.488,11.488,0,0,0-2.826-2.726.375.375,0,0,1-.1-.19.445.445,0,0,1-.088-.218.261.261,0,0,0-.045-.047.272.272,0,0,1-.051-.064h-.122l-.007-.348a.256.256,0,0,0-.048-.052c-.363-.754-.564-1.627-1.517-1.926-.137-.046-.173-.227-.1-.391.02-.044.052-.1.085-.157-.4.142-.667.308-.23.847a.91.91,0,0,1-.264,1.363c-.245,0-.536-.109-.573-.318-.082-.918-.845-1.172-1.508-1.563-.082-.155-.164-.309-.236-.463l-.009-.011v.011a.5.5,0,0,1-.245-.446.128.128,0,0,1,.046-.076v-.614l-.026-.023c-.245-.153-.232-.419-.229-.636a.317.317,0,0,1-.045-.049,3.041,3.041,0,0,1-1.408-2.217c0-.5-.546-.573-.909-.8-.164-.763-.318-1.527-.482-2.29l.016-.043a1.463,1.463,0,0,1-1.061-1.583v-.918a.5.5,0,0,1-.043-.065c0,.022,0,.043.007.065-.381-.327-.182-.763-.227-1.154a.672.672,0,0,1,.106.11.489.489,0,0,0-.07-.11,2.109,2.109,0,0,1,0-.227C.846,162.27,1,161.2.719,160.207a.4.4,0,0,1,.337-.546,1.066,1.066,0,0,1-.274-.654A8.189,8.189,0,0,0,.6,158.1a4.674,4.674,0,0,0-.281-2.145A4.54,4.54,0,0,1,.1,153.673c.291-2.054.046-4.135.291-6.189v-.463L.41,147,.382,147c-.091-.118-.281-.245-.263-.345.164-.909-.336-1.745,0-2.726a8.183,8.183,0,0,0,.037-2.19,2.109,2.109,0,0,0,0-.227c.609-.763.445-1.736.654-2.6.091-.482.2-.936.272-1.381.382-.317.182-.763.236-1.154H1.228c.009,0,0-.063.091,0h.227l.008.009h.025c-.088-.549-.1-1.138-.8-1.336-.164-.045-.118-.263-.118-.409a1.225,1.225,0,0,0-.155-.763c-.582-.7-.272-1.291.109-1.89-.018-.537-.354-1.072,0-1.618l.052.052q0-.026,0-.052v-.446c0-.022,0-.044,0-.066a.492.492,0,0,1-.016-.052c-.012.04-.024.08-.038.118-.272-.172-.218-.454-.236-.708.673-1.036.782-2.409,1.818-3.227.056-.075.112-.1.166-.07.078-.629.489-1.153.552-1.792a2.507,2.507,0,0,1,1.155-1.618l.025.01.2-.238h.019a5.724,5.724,0,0,1,1.626-2.063,1.668,1.668,0,0,0,.473-.473,9.085,9.085,0,0,1,3.208-3.689l.236-.227a2.944,2.944,0,0,1,.236-.227c.446-.236.609-.909,1.291-.8a.291.291,0,0,1,.113.1l.041,0-.045-.029a6.883,6.883,0,0,1,2.327-3.444l.236-.236a2.3,2.3,0,0,0,.7-.69c.11-.146.336-.091.446-.245l.654-.209a12.756,12.756,0,0,1,2.18-2.008c.173-.091.355-.227.327-.436-.1-.837.318-1.627.091-2.49a13.943,13.943,0,0,1-.227-2.39,21.357,21.357,0,0,0-1.118-5.007,3.368,3.368,0,0,1-.1-.909c-.046-1.482-.273-2.954-.373-4.417a20,20,0,0,1-.155-3.635,6.739,6.739,0,0,0-.272-2.018,2.731,2.731,0,0,1-.055-1.254,7.912,7.912,0,0,0,0-2.817,8.631,8.631,0,0,1,.609-3.344c.309-.236-.2-.827.4-.909l.033.025-.006-.025c.024-.064.045-.129.064-.194V77.028a.289.289,0,0,0,.043-.05.527.527,0,0,1-.043.032.851.851,0,0,1,.218-.7v-.436h.129a.337.337,0,0,0-.066-.364v-.454a6.819,6.819,0,0,1,.128-.954c.281-1.554,1.081-3.026.763-4.689A1.289,1.289,0,0,1,18.8,68.5a.274.274,0,0,0,.042-.047.471.471,0,0,1,.139-.364.247.247,0,0,1,.046-.053,1.756,1.756,0,0,0,0-.227.307.307,0,0,0,.069-.1.463.463,0,0,1,.078-.241.329.329,0,0,1,.081-.126.316.316,0,0,0,.07-.1.472.472,0,0,1,.083-.246.338.338,0,0,1,.075-.12l.033-.06a1.356,1.356,0,0,1,.418-1.068l.014-.026c.363-.909.708-1.763,1.09-2.627a24.09,24.09,0,0,1,1.691-3.217,3.689,3.689,0,0,0,.681-1.554q.06-.1.121-.2a1.816,1.816,0,0,1,.734-1.1l.054-.073a2.2,2.2,0,0,1,.455-.7q.041-.059.078-.12c-.032-.42.289-.7.475-1.053h.078a1.5,1.5,0,0,1,.067-.155c.1-.129.186-.26.273-.393a3.636,3.636,0,0,1,.6-.97c.095-.154.191-.307.29-.455a2.516,2.516,0,0,1,.182-.254,19.683,19.683,0,0,1,2.908-3.535h.254l.082-.01c.137-.327.445-.518.654-.781a1.433,1.433,0,0,0,.409-1.026,1.291,1.291,0,0,1,1.054-1.39c.254-.073.546,0,.745-.254s.318-.273.173-.355c-.536-.29-.173-.381.082-.527a3.372,3.372,0,0,0,.346-.282,1.409,1.409,0,0,0,.091-.191l-.227.236.227-.236c.909-.182.909-.182.909-1.381a11.1,11.1,0,0,1,3.7-2.726c.245-.909,1.172-1,1.745-1.518a12.605,12.605,0,0,1,1.255-.79A.352.352,0,0,1,41.377,38a.477.477,0,0,1-.11,0,.474.474,0,0,1,.464-.227.471.471,0,0,1-.2.183.326.326,0,0,0,.154-.092h.227c.073-.073.164-.146.236-.227a.429.429,0,0,1,.191-.1.464.464,0,0,1-.1,0,.473.473,0,0,1,.409-.231.5.5,0,0,1,.181-.421c.006-.032.006-.048.055-.048l.236-.227a.794.794,0,0,0,.455-.464.208.208,0,0,1,.265-.021c.148-.226.3-.443.452-.66a6.092,6.092,0,0,0,1.381-2.318c.482-.2.473-.527.236-.909.082-.073.146-.164.227-.236v-.454l1.417-2.327a4.557,4.557,0,0,1,.9-1.035l.025-.037a1.094,1.094,0,0,0,.109-.327,2.553,2.553,0,0,1,.754-1.291,13.422,13.422,0,0,0,2.863-4.089,8.507,8.507,0,0,1,2.635-2.8,11.829,11.829,0,0,0,2.4-2.4c.591-.491,1.354-.8,1.617-1.618,1.237-.345,2.154-1.291,3.3-1.818a1.541,1.541,0,0,1,.582-.291l-.069.088.076-.059-.016,0a4,4,0,0,1,2.2-1.336c.427-.2.863-.354,1.281-.536a.913.913,0,0,1-.01.149,1.152,1.152,0,0,0,.08-.144l-.042-.005a2.335,2.335,0,0,1,1.781-.927.055.055,0,0,1,.036-.019h.227l0,0c.072-.646.594-.771,1.088-.888a6.071,6.071,0,0,1,.99,0,.3.3,0,0,1-.065.089.286.286,0,0,0,.12-.067,1.209,1.209,0,0,1-.1-.086c0-.972.845-.672,1.318-.909l.308-.073a1.262,1.262,0,0,0,.309-.082c.254-.063.5-.155.754-.236a4.27,4.27,0,0,1,.482-.109c.846-.2,1.636-.573,2.49-.718,1.926-.818,3.944-1.363,5.88-2.145a11.954,11.954,0,0,1,4.062-.372,89.136,89.136,0,0,1,9.851.209c3.862.382,7.77.545,11.4,2.172,1.218.545,2.626.327,3.826.963.436.482,1.118.355,1.627.654a.264.264,0,0,1,.015.183h.021a.27.27,0,0,0,.027.051.475.475,0,0,1,.4.231,6.35,6.35,0,0,1,2.607.645c.645.164,1.218.582,1.945.436.073,0,.2.2.3.3l.053.015-.017-.015a2.257,2.257,0,0,1,2.727.7l-.051-.01.014.01a.319.319,0,0,0,.082.062.506.506,0,0,1-.045-.062.462.462,0,0,1,.463.235h-.035a.3.3,0,0,0,.08.06.482.482,0,0,1-.046-.061.465.465,0,0,1,.464.227l-.028,0,.056.013-.01-.015c.245-.109.581-.363.736-.2a1.436,1.436,0,0,0,1.583.29,2.437,2.437,0,0,1,.9-.091l0,0,.013,0a2.451,2.451,0,0,0,1.032-.117,3.011,3.011,0,0,1,.862-.135l.122-.093.364-.182.227-.1.327-.146.2-.1.191-.1.091-.073.164-.136a.734.734,0,0,1,.191-.119l.3-.154.209-.119.318-.164.227-.118.227-.128.245-.136L130.2,10a2.505,2.505,0,0,1,1.046-.572q.176-.109.348-.225a1.764,1.764,0,0,1,.3-.136q.15-.079.3-.155a6.353,6.353,0,0,1,3.048-1.168l.012,0h0c.015-.015.03-.028.046-.042l-.047.005c.236-.464.717-.464,1.154-.464q-.056.044-.115.084c.039-.014.077-.029.115-.047.173-.272.445-.227.7-.227l.008,0c-.012-.022-.024-.044-.035-.068A6.308,6.308,0,0,1,140.1,5.681a3.1,3.1,0,0,0,.99-.254,27.97,27.97,0,0,1,7.488-1.3c.264.019.537.119.773-.082a9.393,9.393,0,0,1,2.072-.236.8.8,0,0,1,.691-.054.317.317,0,0,1,.033.072l.2-.008-.2.2a.307.307,0,0,1-.013.034,1.88,1.88,0,0,1,.181-.175h.464c.042-.018.083-.033.125-.047l-.089.011a2.308,2.308,0,0,1,1.549-.251,4.549,4.549,0,0,0,.753.015l.013-.013c.152-.251.3-.238.456.012h.227l.08-.026h-.08a6.722,6.722,0,0,1,2.544-.691V2.7h.227a2.189,2.189,0,0,1,1.39-.464h.227a6.486,6.486,0,0,1,2.726,0,.394.394,0,0,1,.045.039V2.228c-.127-.254.073-.363.227-.491,1.154-.345,2.318-.645,3.444-1.045a7.6,7.6,0,0,1,3.035-.573,7.224,7.224,0,0,1,3.49.218,4.835,4.835,0,0,0,1.345.254c.063,0,.082.091.063.146a.246.246,0,0,0-.009.037.483.483,0,0,1,.07.032.507.507,0,0,1,.348.231h-.007l.007.009a.206.206,0,0,0,.052.045l-.052-.054h.455l-.078.081a.585.585,0,0,0,.1-.054c.318,0,.672-.1.909.2a.92.92,0,0,1,.227.028,3.2,3.2,0,0,1,1.954.518c1.072.636,2.3.964,3.353,1.645a1.1,1.1,0,0,0,.546.119,1.155,1.155,0,0,1,1.081.7,13.61,13.61,0,0,1,3.062,1,18.831,18.831,0,0,0,3.862,2.145,19.435,19.435,0,0,1,3.753,2.135.85.85,0,0,1,.418.451,4.576,4.576,0,0,1,.472.248,11.751,11.751,0,0,1,3.181,2.6,15.817,15.817,0,0,0,2.726,2.454,22.153,22.153,0,0,1,3.681,4.289c.5,1.127,1.508,1.918,1.981,3.054a5.89,5.89,0,0,0,.209.554l.182.227.209.2.118.109a10.727,10.727,0,0,1,2.526,3.245c.428.8,1.418,1.209,1.527,2.235,0,.119-.055.1.046.073,1.871-.564,1.227,1.227,1.645,1.89a3.536,3.536,0,0,1,.233,2.679l.1.066a1.356,1.356,0,0,1,.263.428c.275.058.577.076.173.635a.212.212,0,0,0-.029.047,7.643,7.643,0,0,0,.338,1.161,1.333,1.333,0,0,1,0,.627,2.19,2.19,0,0,0-.085.325,12.585,12.585,0,0,1,1.025,2.694l.014.026a.762.762,0,0,1,.082.24c.417.19.3.385.047.576l.011.023c.523-.016.724.415.933.824a3.417,3.417,0,0,0,2.189,2.117c1.409.363,2.2,1.672,3.308,2.508.745.718,1.118,1.754,2,2.354.516.3.728.863,1.051,1.294l.067.006.06-.014c.051-.167.212-.138.449-.013v.052a.4.4,0,0,1,.129.175h.08c.091.382.191.755.281,1.136l-.056-.051a.176.176,0,0,0,.11.106,6.777,6.777,0,0,1,1.581,2.553,2.392,2.392,0,0,1,.609,1.314l.009,0a.609.609,0,0,1,.245.209,4.014,4.014,0,0,1,.191.454.7.7,0,0,1,0,.309,1.556,1.556,0,0,0-.112.273,9.01,9.01,0,0,1,.315,1.579,3.544,3.544,0,0,1,.188.5,2.655,2.655,0,0,1,.155.263c.073.136.136.282.2.418a2.639,2.639,0,0,1,.11.3,6.635,6.635,0,0,0,.2.648,4.12,4.12,0,0,1,.377.847,6.571,6.571,0,0,0,.579.9,1.473,1.473,0,0,1,.191.273,53.933,53.933,0,0,1,1.89,5.861c.291,1.054,1.118,1.927,1.072,3.1s.682,1.99.909,3.026a8.2,8.2,0,0,0,.273,1.245c1.008,2.409.909,5.026,1.3,7.534.29,1.718.726,3.562,0,5.452a12.026,12.026,0,0,0-.236,3.19,26.289,26.289,0,0,1-1.118,5.007,1.817,1.817,0,0,0,.227,1.818.947.947,0,0,1,.472.472,3.74,3.74,0,0,1,1.445,1.209,19.792,19.792,0,0,1,2.427,2c1.1,1.372,2.944,1.817,3.762,3.4.354.681,1.172.491,1.636.909a6.888,6.888,0,0,0,.772,1.354,4.066,4.066,0,0,1,.582,1.072,1.054,1.054,0,0,0,.419.69,1.177,1.177,0,0,1,.2.219,3.307,3.307,0,0,1,.236.382l.02.045a.365.365,0,0,1,.17.037c1,1.136,2.217,2.118,2.472,3.744,0,.081,0,.081.155.091.654.054.654.054.837,1.063.109.681,1.017.436,1.2,1.026a1.726,1.726,0,0,1,.164.291,62.783,62.783,0,0,1,2.3,6.17,6.037,6.037,0,0,1,.449,3.357,1.881,1.881,0,0,1,.124.168,1,1,0,0,1,.155.273,1.927,1.927,0,0,1,.1.445v.455q.007.036.016.072c.208.125.194.36.188.59a3.67,3.67,0,0,0,.161.338,1.461,1.461,0,0,1,.091.327q-.009,1.27.073,2.537a14.117,14.117,0,0,0,.318,1.671,2,2,0,0,1-.033,1.051q.025.17.051.339a2.544,2.544,0,0,1,.069.342c.5.33.22.94.14,1.321q-.07.439-.113.882c0,.49,0,.978-.024,1.462a1.665,1.665,0,0,1-.04.249c0,.044,0,.088,0,.133a.145.145,0,0,1-.053.045,5.284,5.284,0,0,0-.173,1.191,2.762,2.762,0,0,1-.073.333,1.37,1.37,0,0,1,.064.5v1.2c-.309.581.082,1.254-.227,1.817l-.009.006a.754.754,0,0,1-.134.594q-.007.145-.012.29a52.827,52.827,0,0,1-3.362,15.449,7.169,7.169,0,0,1-.627,1.672v.409a1.821,1.821,0,0,0-.345.91,25.115,25.115,0,0,0-.827,2.826,1.4,1.4,0,0,1-.654.909q-.051.031-.1.066c.128.59-.278,1.094-.483,1.624a5.465,5.465,0,0,1-.591,1.09c-.3.557-.561,1.132-.819,1.71a.435.435,0,0,1,.111-.083c0,.008,0,.017,0,.025l.226-.234-.226.234a.473.473,0,0,1-.229.43.436.436,0,0,1,0-.1,19.286,19.286,0,0,1-2.413,4.424,9.472,9.472,0,0,0-1.49,2.572,3.158,3.158,0,0,1-1.309,1.6q-.082.129-.172.252a3.057,3.057,0,0,1-.427.726,14.276,14.276,0,0,0-3.362,5.771,3.528,3.528,0,0,1-1.1,2.126,1.816,1.816,0,0,1-1.136.509,3.291,3.291,0,0,0-2.39,1.209c-1.345,1.354-3.163,2-4.7,3.072-.218.155-.464.281-.663.454a11.154,11.154,0,0,1-.981.609l-.273.191-.146.1a13.85,13.85,0,0,1-3.689,1.817c-1.444.51-2.844,1.145-4.262,1.745a27.8,27.8,0,0,1-5.625,1.336,5.062,5.062,0,0,0-.763.072,3.454,3.454,0,0,1-.5.111q-.19.053-.377.12v.142h-.544a3.027,3.027,0,0,1-.448.028,3.332,3.332,0,0,0-.733.081.472.472,0,0,1-.384.127h-.048l-.389.119a2.06,2.06,0,0,1-.409.091h-.267a.055.055,0,0,1-.032.009l-.009.009V200.8l-.115,0c-.043.008-.086.018-.129.029a.491.491,0,0,1-.447.2h-.227l-.011.009h0l-.227.227V201.2l-.02.012c0,.022-.01.03-.053.03v.227c-.082.073-.146.164-.227.236v.236a2.709,2.709,0,0,0-.227.227l-.058.141a1.828,1.828,0,0,0,.131-.141l.016.02.211-.211-.211.211a.726.726,0,0,1-.016.934c-.445.464-.155,1.164-.609,1.663-.227.254.227.718.136,1.117l-.142-.144a.323.323,0,0,0,.069.109v.227a.8.8,0,0,0-.087.188.656.656,0,0,1,.16-.152c.119.482.364.964-.064,1.445a1.976,1.976,0,0,0,.068.6l.014.015a.154.154,0,0,1,.038.044c.1.064.091.135-.038.2v.677a.6.6,0,0,1-.025.182.466.466,0,0,1-.22.3v0l0,0,0,0v.214a.052.052,0,0,0,.019,0v.682l-.021.018h0v.3a.909.909,0,0,1-.436.7c-.014-.032-.026-.063-.038-.094l-.064.036.111.067a4.329,4.329,0,0,1-.8,1.99c-1,1.436-1.654,3.09-2.726,4.48-.636.818-1.327,1.591-1.936,2.427-.29.391-.518.79-.8,1.19-.5,1.136-.846,2.372-2.064,3.017a.912.912,0,0,0-.436.654,3.63,3.63,0,0,1-1.3,2.036,4.766,4.766,0,0,0-1.3,1.817c-.136.373-.272.691-.717.809a1.192,1.192,0,0,0-.7.718c-.082.173-.209.464-.309.464-.763,0-.745.663-1.035,1.063s-1.109.436-1.155,1.163c-1.145.3-1.636,1.4-2.49,2.054a1.719,1.719,0,0,1-1.194.5l-.006.019c-.073.236-.463.218-.69.326a.718.718,0,0,0-.473.818h-.681a.535.535,0,0,1-.131-.165l-1.5.638c-.125.191-.249.227-.369.11a1.318,1.318,0,0,1-.649.407c-.043.027-.073-.012-.1-.051a.183.183,0,0,0-.054-.054.473.473,0,0,1,.031.051h-.128a1.656,1.656,0,0,1-.173.191l-.281.263a.654.654,0,0,1-.218.128,1.194,1.194,0,0,1-.245.055h-.236a1.483,1.483,0,0,0-.336.127l-.227.109-.227.119-.217.1c-.322.293-.6.681-1.126.544q-.046.012-.093.019a.4.4,0,0,1-.191-.064v.028l-.1.1a.468.468,0,0,1-.019.086.487.487,0,0,1-.227.2l-.052.005a2.826,2.826,0,0,1-.878.26l-.051.027-.236.146c-.164.091-.355.109-.519.191l-.381.1a2.9,2.9,0,0,0-.5.109.787.787,0,0,1-.254,0,.653.653,0,0,0-.463.119.409.409,0,0,1-.061.048l.033,0a.717.717,0,0,1-.689.238c-.073,0-.146-.006-.219,0a.6.6,0,0,1,.059-.072l-.031.027a12.992,12.992,0,0,0-3.2,1.072,5.456,5.456,0,0,1-2.326.327c-.1.006-.2,0-.307,0a1.128,1.128,0,0,0-.911.252h-2.006l-.039.036a9.675,9.675,0,0,0-3.517.273c-1.118.463-2.408,0-3.435.818a1.26,1.26,0,0,1-.791.063,17.288,17.288,0,0,0-3.752.282,3.062,3.062,0,0,1-1.818,0c-.291.46-.714.448-1.139.435a1.613,1.613,0,0,0-.8.11.555.555,0,0,1-.327.091,7.8,7.8,0,0,0-1.687-.026c-.289.016-.578.032-.866.032A4.357,4.357,0,0,1,145.539,244.757ZM162,238.482l-.249-.057A.524.524,0,0,0,162,238.482Zm5.944-1.128a.705.705,0,0,0,.295.063,1.823,1.823,0,0,1-.52-.226A.716.716,0,0,0,167.939,237.354Zm9.077-2.275.038-.024-.008-.009-.012,0Zm5.019-5.279q-.04.079-.076.159a2.5,2.5,0,0,1,.307-.112.294.294,0,0,0-.163-.057A.253.253,0,0,0,182.034,229.8Zm6.642.08c0-.007,0-.014,0-.021a.654.654,0,0,0-.227-.5l-.013-.132a1.283,1.283,0,0,1-.078.151c.051.043.079.082.074.123A1.039,1.039,0,0,1,188.677,229.88Zm-131.124-3.8c.073.073,0-.064,0-.064l-.015,0q.007.032.012.065Zm-2.652-.291.061-.013a.39.39,0,0,0-.042-.017Zm-.383-.89.017-.02a3.257,3.257,0,0,1-.543-.176l.014.01.127.082A.809.809,0,0,0,54.517,224.9Zm36.6-1.681h.009l.014,0-.007-.009Zm106.209-.514q.211-.147.432-.281,0-.039.011-.078l.028-.04Q197.553,222.5,197.323,222.706ZM84.3,218.431l-.019-.042-.009.02Zm-15.6-9.74a1.258,1.258,0,0,0,.065-.116A.26.26,0,0,0,68.7,208.692Zm115.5-3.792.007,0c-.06-.027-.122-.051-.186-.072A.8.8,0,0,0,184.207,204.9Zm-42.094-6.67a.155.155,0,0,0,.083.011l-.014-.016A.4.4,0,0,1,142.113,198.229Zm3.281-1.109a.631.631,0,0,0,.177.208q-.081-.1-.167-.208l.006-.013-.016-.007C145.393,197.107,145.393,197.113,145.393,197.12Zm-11.4.011a.428.428,0,0,0,.081,0l.012,0-.018-.015a.275.275,0,0,1-.093.013Zm13.2-.49h0Zm-13.21-.445a.7.7,0,0,1-.154.013C133.873,196.249,133.921,196.255,133.985,196.2Zm1.973-.631.01,0-.009,0Zm4.849-.535a2.938,2.938,0,0,0,.086-.29,1.667,1.667,0,0,0-.089.29Zm-81.19-1.055q-.11-.067-.225-.127A.287.287,0,0,0,59.617,193.977Zm72.022-.827a.125.125,0,0,0-.221-.064Q131.529,193.114,131.639,193.15Zm20.971-.1.023-.009-.019-.026A.127.127,0,0,0,152.609,193.049Zm.209-.091v0l.054-.017-.038-.031-.023.028a.085.085,0,0,1,0,.018Zm-.927-.546a.493.493,0,0,0-.13.148l.044-.021c.062-.067.128-.126.186-.19a.776.776,0,0,1,.191-.155.135.135,0,0,0,.051-.009h-.105l-.015-.025A1.435,1.435,0,0,1,151.891,192.413Zm-39.675.022.008,0,.033-.038A.283.283,0,0,0,112.216,192.434Zm19.8-.107a.255.255,0,0,1,.018-.078v-.035c-.049.006-.045.042-.043.08A.4.4,0,0,0,132.016,192.327Zm-1.879-.092c.038-.077.123-.123.189-.177a1.649,1.649,0,0,0-.227.152Zm30.854-.331a.211.211,0,0,1-.094-.091h.021l-.021-.018-.043.041C160.9,191.881,160.936,191.967,160.991,191.9Zm.112-.331.027,0,0-.015Zm-5.325-.464.038-.031-.054.015Zm-55.019-.926.091-.006a.163.163,0,0,0-.1-.028Zm15.147-.122c-.1-.109-.2-.215-.3-.319a1.191,1.191,0,0,1,.038.181.22.22,0,0,1,.009.066Zm-22.647-.067-.029-.035,0,0-.01,0,.006.006-.006-.006a.337.337,0,0,1-.107-.076A.629.629,0,0,0,93.26,189.995Zm54.5-.248c.008-.014.017-.027.027-.039l-.035,0-.008.007Zm13.878-.206s.082.055.091.046q.035-.041.071-.078l-.163.031Zm-13.736.028.013-.019-.017.019Zm-42.543-.268-.111-.03-.035.033.036-.008A.224.224,0,0,0,105.354,189.3Zm-5.159-.268-.031-.036v.021Zm-.056-.444.025-.009-.019-.019C100.143,188.569,100.141,188.578,100.139,188.588Zm8.6-.246v-.11l-.023.011a.109.109,0,0,1,0,.061A.362.362,0,0,1,108.743,188.342Zm1.927-.1c-.113-.115-.18-.123-.251-.018Q110.545,188.234,110.67,188.246Zm-6.744-.35a.154.154,0,0,0-.012-.042l-.007.005Zm-10.041-1.154v-.027a.063.063,0,0,0-.019-.012S93.866,186.713,93.885,186.742Zm0-.064Zm63.2-.352v0h0Zm-52.223-.507q-.082-.076-.169-.146A.215.215,0,0,0,104.859,185.819ZM91.9,185.38a.316.316,0,0,1-.013-.053l-.01.008A.164.164,0,0,0,91.9,185.38Zm3.889-.605.014-.045-.016.029Zm75.055-.559.044-.023-.049,0Zm-80.288-.081c0-.042,0-.085,0-.128l-.009,0C90.556,184.048,90.556,184.091,90.559,184.134Zm137.017-.276a.547.547,0,0,0,.106-.341,1.628,1.628,0,0,0-.01-.185A2.541,2.541,0,0,0,227.576,183.858Zm-137.135-.115.02.019c0-.013,0-.025,0-.037h.033a1.143,1.143,0,0,0-.033-.167q-.012.079-.028.167h-.016Zm-4.542-.034h0Zm16.437-.051-.01-.026-.019-.006Zm-.327-.068a.84.84,0,0,1,.107-.029q-.085-.031-.171-.06a1.237,1.237,0,0,0-.127.031A.422.422,0,0,1,102.009,183.589Zm-83.176-.234v0h0Zm81.533-.244c.011-.026.022-.052.031-.078q-.55-.25-1.117-.457A10.909,10.909,0,0,1,100.366,183.111Zm-11.316-.066v-.01l.025-.012a.65.65,0,0,1-.027-.064c0,.025,0,.051,0,.076h-.011Zm117.408-.438a.754.754,0,0,1-.047-.108A.262.262,0,0,0,206.459,182.608Zm-126.45-.055-.042.033a1.018,1.018,0,0,0,.106-.015l0,0c-.028-.037-.057-.074-.086-.11C80,182.491,80,182.522,80.008,182.553Zm14.585-.207v0h-.005ZM94.621,182.344Zm-5.422-.063a.634.634,0,0,1,.051-.046.156.156,0,0,1,.182-.046c-.064-.054-.127,0-.182,0l-.014.017Q89.217,182.243,89.2,182.281Zm-.76-.193a.14.14,0,0,0-.025-.162.071.071,0,0,0-.033.037C88.4,182,88.42,182.045,88.44,182.088Zm7.579-.333-.016,0v0Zm-.362-.111q-.062-.024-.125-.045l.016.017.037.028ZM94.4,181.4h.089l-.13-.044.024.029Zm-.7-.209c.033,0,.066-.006.1-.007l-.008,0c-.038-.013-.077-.025-.116-.036.009.011.017.023.025.036h-.008Zm-.859-.218-.052-.016.01.016ZM81.2,180.861l.032-.062h-.007l-.034.009C81.2,180.826,81.2,180.844,81.2,180.861Zm125.046-.406q.008-.315.035-.629C206.068,180.029,206.033,180.27,206.247,180.455Zm-127-1.62a1.183,1.183,0,0,1,.118.14v-.011c-.037-.045-.076-.088-.117-.129l-.046-.091Zm142.963-.11-.015,0Zm-139.524-.2a.06.06,0,0,0-.031-.078.083.083,0,0,0-.02-.008C82.65,178.465,82.667,178.494,82.684,178.523Zm-.339-.033c-.038-.03-.071-.057-.1-.083C82.263,178.479,82.3,178.5,82.344,178.49Zm4.794-.182-.2-.081q-.2-.11-.4-.215.115.081.225.169Q86.955,178.243,87.139,178.308Zm-65.909-.553h.012l-.026-.014-.011,0Zm63.668-.491q.131.031.259.07l-.033-.015q-.17-.1-.346-.194.075.062.146.13h-.035Zm151.89,0a.614.614,0,0,0,.256-.378Q236.924,177.08,236.787,177.264Zm-153.48-.7h.145l-.255-.125a.482.482,0,0,1,.11.125Zm158.116-.055a.3.3,0,0,0-.014-.028l-.022.027Zm-158.415-.164-.037-.018a2.069,2.069,0,0,1-.263-.164q-.117-.083-.236-.164.188.16.363.336a.5.5,0,0,1,.062,0A.472.472,0,0,1,83.007,176.346Zm-5.753-.4a.071.071,0,0,0,.019-.058c0-.011-.01-.015-.019-.013C77.254,175.9,77.254,175.924,77.255,175.949Zm.191-2.117-.184-.131q.017.036.032.074Zm-1.354-.912a.564.564,0,0,0,.235.134l-.315-.215Zm-65.355-.492.034-.016h-.037Zm63.164-.962c0,.164.218.182.373.227l.183.061q-.315-.23-.625-.469A.945.945,0,0,1,73.9,171.466ZM7.322,169.247c0-.011,0-.021,0-.032a.218.218,0,0,0-.034-.039h0A.74.74,0,0,1,7.322,169.247Zm4.185-.045-.028-.026,0,0-.03,0C11.469,169.186,11.487,169.194,11.507,169.2Zm204.755-.039,0,0-.006,0Zm-204.319-.215c-.006.038-.012.075-.019.111a.606.606,0,0,0,.073-.075v-.224a.2.2,0,0,0-.018.087.584.584,0,0,1-.068.1Zm-7.406.011,0-.005h0Zm3.889-.248.048.026v0l0,0,0-.052-.014.016-.077,0Zm172.9-6.573.01,0v-.006Zm-166.1-10.687.05-.01-.044-.069C15.23,151.4,15.228,151.427,15.225,151.453Zm-8.378-6.98,0-.006H6.83Zm1.483-4.147c.031-.167.016-.26-.056-.3A1.157,1.157,0,0,1,8.33,140.326Zm-4.258-1.167.024.027-.015-.036-.013.006ZM.948,134.178a.816.816,0,0,0,.062-.184A.961.961,0,0,0,.948,134.178Zm220.445-.135h0ZM.63,132.1a.849.849,0,0,1,.043-.11l.01-.008-.064.008Zm35.6-.729c0-.033.011-.065.018-.1a1.076,1.076,0,0,1-.129.012ZM10.342,128.8c.006-.013.012-.025.019-.038a.146.146,0,0,0,.045-.055.384.384,0,0,1-.081.055Zm-.017-.038v-.133l-.035.018.035.062v.054Zm22.683-.086.057-.058-.054-.051Q33.011,128.622,33.008,128.677Zm-22.593-.087v0h0Zm21.907-.7-.01-.036-.07-.068Q32.28,127.839,32.321,127.89Zm-14.127-2.743a1.945,1.945,0,0,1-.032-.39A.366.366,0,0,0,18.194,125.148Zm34.961-10.515.084-.073a.5.5,0,0,1-.12,0Zm165.695-9.57.032-.009A.422.422,0,0,0,219,105Zm-195.3-.6c.036.068.072.136.172.023h0l.008-.009,0,0-.014-.015h-.174ZM30.19,83.207l.017-.023v-.007Zm187.4-.044q-.036-.039-.07-.079A.348.348,0,0,0,217.592,83.163Zm-11.43-6.581a.266.266,0,0,0,.154.011q-.09-.066-.184-.126A1.149,1.149,0,0,1,206.162,76.582Zm-2.152-.984a2.179,2.179,0,0,1-.189-.153A.586.586,0,0,0,204.009,75.6ZM42.049,73.62l.006-.009a2.627,2.627,0,0,1-.344,0C41.865,73.739,41.978,73.731,42.049,73.62ZM194.43,71.1a.31.31,0,0,0,.01-.215A1.379,1.379,0,0,1,194.43,71.1Zm-10.215-2.917a.474.474,0,0,0,.337-.21l.034-.046A3.108,3.108,0,0,1,184.215,68.187ZM44.289,68.114a1.531,1.531,0,0,1-.222-.227A.23.23,0,0,0,44.289,68.114Zm138.326-3.878.011,0-.005,0Zm17.6-.059q-.056-.043-.116-.082h0Zm-52.96-8.707c.023-.027.046-.054.069-.079q-.036.025-.069.053Zm.165-.163.027,0-.017-.006Zm45.737-3.6-.071-.05A.214.214,0,0,0,193.158,51.71Zm32.261-.963h0l-.039-.036-.048.03ZM153.5,49.311l.019.01c0-.018.008-.036.014-.055l-.023.008-.039.037Zm15.075-2.047c0-.008,0-.016,0-.025l.041-.023-.021-.035a.3.3,0,0,1-.029.069Zm-127.488-6.9.008.01,0-.015Zm170.392-1.435h.016l-.026-.019Zm-25.508-.1.01.033.03-.033Zm14.41-1.169q.027-.021.056-.039l.046-.021-.055-.025C200.411,37.6,200.4,37.626,200.38,37.655ZM42.691,37.3a1.355,1.355,0,0,1,.106-.142l-.145.14Zm.194-.226-.043.042a.36.36,0,0,1,.061-.042l.012-.009h-.03Zm10.623.017.073-.071-.117-.034A.715.715,0,0,1,53.509,37.1Zm-10.16-.044h0l0,0Zm1.18-.68.056-.056.055-.055.014-.032-.137.137Zm100.819-1.728a.672.672,0,0,1,.2.28.449.449,0,0,0-.319-.367A1.091,1.091,0,0,1,145.348,34.644Zm-3.452.25a.477.477,0,0,0,.062-.042.449.449,0,0,0-.128-.442A1.611,1.611,0,0,1,141.9,34.894ZM102.4,34.128a5.1,5.1,0,0,1-.708-.34A1.629,1.629,0,0,0,102.4,34.128Zm40.169-2.1a.6.6,0,0,0-.438-.432A1.518,1.518,0,0,1,142.571,32.028Zm6.422-2.068.008-.033a.355.355,0,0,0-.2-.382l-.037-.024A1.5,1.5,0,0,1,148.993,29.96Zm35.068-.878.095.076a1.586,1.586,0,0,1-.1-.451C184.029,28.841,183.943,29,184.061,29.082ZM57.325,28.241c-.009-.032-.018-.064-.027-.1l-.035.091A.417.417,0,0,1,57.325,28.241Zm93.012-1.3q0,.04,0,.08a1,1,0,0,0,.01-.3A1.691,1.691,0,0,0,150.337,26.946Zm37.868-.363a.44.44,0,0,0-.044.141.674.674,0,0,1,.089-.2l.019-.033A.523.523,0,0,0,188.205,26.583ZM75.574,20.849c.087.226.226.286.384.264a3.682,3.682,0,0,0-.475-.467A2.062,2.062,0,0,1,75.574,20.849Zm-2.708-1.3a.352.352,0,0,0,.189.19.482.482,0,0,1-.214-.419A.428.428,0,0,0,72.866,19.549Zm63.15-2.872a.3.3,0,0,0,.221-.2,3.7,3.7,0,0,1-.336.2A.458.458,0,0,0,136.015,16.677Zm55.9-2.313a.406.406,0,0,0,.065-.01l-.026-.017A.445.445,0,0,1,191.912,14.364Zm.175-.086a.182.182,0,0,1,.126-.037.111.111,0,0,0-.049-.014A.1.1,0,0,0,192.087,14.279Zm-.9-1.781q.009.049.021.1a1.741,1.741,0,0,1,.131-.423A.328.328,0,0,0,191.186,12.5ZM169.541,10.14a2.135,2.135,0,0,1-.091-.31h0A.373.373,0,0,0,169.541,10.14Zm-60.607-.073.032-.029-.006,0-.026.024S108.934,10.064,108.934,10.067Zm51.191-.193a.283.283,0,0,1-.02-.047l-.033,0Zm12.749-1.226.024-.009-.015,0ZM146.785,5.626a.421.421,0,0,0,.2-.09l-.049.016A.44.44,0,0,1,146.785,5.626Zm14.594-.815a.2.2,0,0,1,.035-.011.174.174,0,0,0-.073-.031C161.355,4.784,161.367,4.8,161.38,4.811Zm-9.292-.7h0l0,0Zm18.521-.077c0-.019-.008-.039-.012-.059L170.584,4Zm-15.6-.353c.027-.01.054-.021.081-.033a.325.325,0,0,1,.023-.028Q155.061,3.651,155.008,3.679Zm16.327-.589a.348.348,0,0,0-.1-.012Zm5.591-1.415-.008-.011h-.025ZM91.832,228.082h.154a.209.209,0,0,1,.092.218v.236A.5.5,0,0,1,91.832,228.082Zm-.227-.245c.2-.055.281,0,.227.227v.009Zm-14.3-2.309c.164-.272.436-.227.7-.227a.558.558,0,0,1-.531.228Zm10.615-.69a.508.508,0,0,1-.236-.455c.363,0,.372.2.236.464Zm119.4-23.355-.227.236ZM21.629,186.969l.236.219Zm-8.315-4.852c.2,0,.281,0,.236.227ZM1.228,136.379ZM251.436,115.15l.218.236ZM14.023,111.207l-.236.236ZM42.2,37.533l-.236.227Zm3.926-5.544-.227.236Z" transform="translate(0 0)"/></g></g><g transform="translate(1055.451 2192.158) rotate(-81)"><g transform="translate(0 0)"><path d="M144.5,245.621l.227.227Zm1.035-.864c-1.309-.436-2.571-.227-3.826-.636a1.518,1.518,0,0,0-.8.065,2,2,0,0,1-.769.088.237.237,0,0,0-.027-.028v.183a1.634,1.634,0,0,1-.644-.077,1.66,1.66,0,0,0-.656-.077.8.8,0,0,1-.782-.536l.01-.01c0-.038,0-.08-.007-.126h-.2a.27.27,0,0,0-.085-.066.985.985,0,0,1-.49-.075.3.3,0,0,1-.116-.086,6.993,6.993,0,0,0-2.727-.836,19.206,19.206,0,0,1-2.372-.781.276.276,0,0,0-.069-.062.955.955,0,0,1-.437-.063.3.3,0,0,1-.194-.111h-.279a.447.447,0,0,1-.4.164l-.009.017a3.084,3.084,0,0,1-1.408-.69h.028a.173.173,0,0,1-.028-.037,1.81,1.81,0,0,1-.909-.245l-.029-.029a.754.754,0,0,1-.007.1,4.9,4.9,0,0,1-2.09,0c-.006-.01-.011-.02-.018-.03a.619.619,0,0,1-.628-.234h-.218c-2.726-.191-5.452-.745-8.179-.672a5.624,5.624,0,0,1-1.817-.245c-.137-.209-.363-.382-.573-.318a2.555,2.555,0,0,1-2.063-.409,2.627,2.627,0,0,0-1.445-.263,5.975,5.975,0,0,1-1.227-.173l0,0a.445.445,0,0,1-.344-.147.319.319,0,0,1-.115-.076c-.981-.609-2.309-.3-3.2-1.182-.563-.545-1.481-.146-2.035-.781-.227-.264-.691-.336-.564-.837l.027-.011c-.495-.219-1.133-.28-1.335-.888l.115.011-.115-.047a.958.958,0,0,0-.134-.093l.134.129h-.236v-.179l-.028-.011-.085-.038c-.219,0-.438,0-.578-.235-.345.172-.645.327-1-.064a1.69,1.69,0,0,0-1.39-.645c-.327,0-.527-.263-.745-.463l-1.063-.963a1.476,1.476,0,0,1-.182-.064q-.089-.051-.172-.109h-.282a.818.818,0,0,1,0-.209l.018,0-.045-.043h0a.39.39,0,0,0-.1-.082l.11.119-.227-.009-.227-.236h.035a.446.446,0,0,1-.044-.037L96,231.017c-3.3-2.118-5.862-5.025-8.461-7.888q-.028-.129-.067-.256l-.242-.126v-.218a.149.149,0,0,1-.034-.035l-.091-.095a.2.2,0,0,1-.112-.052c-.554-.445-1.09-.963-1.908-.563a.427.427,0,0,1-.318,0,1.869,1.869,0,0,0-1.6-.226,2.3,2.3,0,0,0-.5.208,2.339,2.339,0,0,1-.5.119,2.728,2.728,0,0,0-.612.073.537.537,0,0,0-.269.426c0,.169-.183.156-.348.143a1.136,1.136,0,0,0-.152-.007,5.949,5.949,0,0,0-1.136.1c-.99.263-.99.245-.682,1.236.128.418-.581,1.154-1.263,1.181a1.392,1.392,0,0,0-1.381.709H74.992l0-.005a2.224,2.224,0,0,1-1.2.69,2.121,2.121,0,0,1-.819.1l-.065-.009c-.12.657-.58.644-1.035.632a3.216,3.216,0,0,0-.354,0,.683.683,0,0,0-.745.336.836.836,0,0,1-.864.346.582.582,0,0,0-.04-.046l.022.046c-.564-.146-.909.454-1.381.463a.483.483,0,0,1-.041-.189q-.094.083-.185.171h-.209a.291.291,0,0,0-.042-.033.536.536,0,0,1,.042.051c-.263.009-.527.028-.709-.227h.014l-.014-.018a19.507,19.507,0,0,1-3.917-.482,3.517,3.517,0,0,1-2.3-.218,4.976,4.976,0,0,0-1.608-.336c-.581,0-.855-.691-1.2-1.136a.761.761,0,0,1-.034-.094.242.242,0,0,0-.229.238c-.091,1.318-.282,1.454-1.553,1.136v.009a4.219,4.219,0,0,1-2.318-.918c-1.035-.6-2.072-1.2-3.117-1.817a1.763,1.763,0,0,1-.818-.745l.007-.023-.688-.45a1.382,1.382,0,0,1-1.718-.454,4.276,4.276,0,0,1-.827-.937l-2.544-2.272-.014-.011,0,.011a1.679,1.679,0,0,1-1.381-.482,1.76,1.76,0,0,1-1.145-.909l-.227-.236q-.035-.017-.069-.036l-.081,0c-.267.013-.531.026-.3-.457a1.107,1.107,0,0,0-.854-.972,2.155,2.155,0,0,1-1.2-1.021.506.506,0,0,1-.144-.024,1.636,1.636,0,0,1-.291-.119c-.518-.345-1.054-.663-1.209-1.336a1.4,1.4,0,0,0-.564-.964c-.2-.173-.681-.064-.272-.545.055-.064-.082-.2-.2-.218-1.091-.191-1.427-1.145-1.927-1.936-.091-.155-.1-.363-.272-.482a2.877,2.877,0,0,1-.691-1.39.5.5,0,0,1-.164-.145.765.765,0,0,1-.136-.163l-.073-.092a1.278,1.278,0,0,1-.146-.173.7.7,0,0,1-.128-.191l-.118-.2-.146-.209a.917.917,0,0,1-.137-.227.606.606,0,0,1,0-.281.293.293,0,0,1,.1-.161l0,0a1.019,1.019,0,0,1-.682-.636c-.463-1.118-1.39-1.954-1.817-3.062v-.227a.455.455,0,0,1-.227-.473.524.524,0,0,1,.063.052.285.285,0,0,0-.063-.088,1.623,1.623,0,0,0,0-.218c-.482-1.327-1-2.644-1.608-3.926-.4-1.282-1.445-2.317-1.418-3.762a1.09,1.09,0,0,1,0-.163c.073-1.218-.69-2.163-1.072-3.226s-.727-1.927-.981-2.926a4.685,4.685,0,0,0-.467-.973H24.41l-.69-.464c-.209,0-.309.582-.609.146s-.635-1-1.444-.509c-.318.191-.745-.437-1.191-.554l-.052-.021a2.048,2.048,0,0,1-1.542-.883l-.015,0-.043-.046a18.5,18.5,0,0,1-3.2-2.7.135.135,0,0,1-.056-.1l-.107-.112-.064-.039-.024-.018a.727.727,0,0,1-.656-.439l-.01-.006a1.822,1.822,0,0,1-.909-.7,11.488,11.488,0,0,0-2.826-2.726.375.375,0,0,1-.1-.19.445.445,0,0,1-.088-.218.261.261,0,0,0-.045-.047.272.272,0,0,1-.051-.064h-.122l-.007-.348a.256.256,0,0,0-.048-.052c-.363-.754-.564-1.627-1.517-1.926-.137-.046-.173-.227-.1-.391.02-.044.052-.1.085-.157-.4.142-.667.308-.23.847a.91.91,0,0,1-.264,1.363c-.245,0-.536-.109-.573-.318-.082-.918-.845-1.172-1.508-1.563-.082-.155-.164-.309-.236-.463l-.009-.011v.011a.5.5,0,0,1-.245-.446.128.128,0,0,1,.046-.076v-.614l-.026-.023c-.245-.153-.232-.419-.229-.636a.317.317,0,0,1-.045-.049,3.041,3.041,0,0,1-1.408-2.217c0-.5-.546-.573-.909-.8-.164-.763-.318-1.527-.482-2.29l.016-.043a1.463,1.463,0,0,1-1.061-1.583v-.918a.5.5,0,0,1-.043-.065c0,.022,0,.043.007.065-.381-.327-.182-.763-.227-1.154a.672.672,0,0,1,.106.11.489.489,0,0,0-.07-.11,2.109,2.109,0,0,1,0-.227C.846,162.27,1,161.2.719,160.207a.4.4,0,0,1,.337-.546,1.066,1.066,0,0,1-.274-.654A8.189,8.189,0,0,0,.6,158.1a4.674,4.674,0,0,0-.281-2.145A4.54,4.54,0,0,1,.1,153.673c.291-2.054.046-4.135.291-6.189v-.463L.41,147,.382,147c-.091-.118-.281-.245-.263-.345.164-.909-.336-1.745,0-2.726a8.183,8.183,0,0,0,.037-2.19,2.109,2.109,0,0,0,0-.227c.609-.763.445-1.736.654-2.6.091-.482.2-.936.272-1.381.382-.317.182-.763.236-1.154H1.228c.009,0,0-.063.091,0h.227l.008.009h.025c-.088-.549-.1-1.138-.8-1.336-.164-.045-.118-.263-.118-.409a1.225,1.225,0,0,0-.155-.763c-.582-.7-.272-1.291.109-1.89-.018-.537-.354-1.072,0-1.618l.052.052q0-.026,0-.052v-.446c0-.022,0-.044,0-.066a.492.492,0,0,1-.016-.052c-.012.04-.024.08-.038.118-.272-.172-.218-.454-.236-.708.673-1.036.782-2.409,1.818-3.227.056-.075.112-.1.166-.07.078-.629.489-1.153.552-1.792a2.507,2.507,0,0,1,1.155-1.618l.025.01.2-.238h.019a5.724,5.724,0,0,1,1.626-2.063,1.668,1.668,0,0,0,.473-.473,9.085,9.085,0,0,1,3.208-3.689l.236-.227a2.944,2.944,0,0,1,.236-.227c.446-.236.609-.909,1.291-.8a.291.291,0,0,1,.113.1l.041,0-.045-.029a6.883,6.883,0,0,1,2.327-3.444l.236-.236a2.3,2.3,0,0,0,.7-.69c.11-.146.336-.091.446-.245l.654-.209a12.756,12.756,0,0,1,2.18-2.008c.173-.091.355-.227.327-.436-.1-.837.318-1.627.091-2.49a13.943,13.943,0,0,1-.227-2.39,21.357,21.357,0,0,0-1.118-5.007,3.368,3.368,0,0,1-.1-.909c-.046-1.482-.273-2.954-.373-4.417a20,20,0,0,1-.155-3.635,6.739,6.739,0,0,0-.272-2.018,2.731,2.731,0,0,1-.055-1.254,7.912,7.912,0,0,0,0-2.817,8.631,8.631,0,0,1,.609-3.344c.309-.236-.2-.827.4-.909l.033.025-.006-.025c.024-.064.045-.129.064-.194V77.028a.289.289,0,0,0,.043-.05.527.527,0,0,1-.043.032.851.851,0,0,1,.218-.7v-.436h.129a.337.337,0,0,0-.066-.364v-.454a6.819,6.819,0,0,1,.128-.954c.281-1.554,1.081-3.026.763-4.689A1.289,1.289,0,0,1,18.8,68.5a.274.274,0,0,0,.042-.047.471.471,0,0,1,.139-.364.247.247,0,0,1,.046-.053,1.756,1.756,0,0,0,0-.227.307.307,0,0,0,.069-.1.463.463,0,0,1,.078-.241.329.329,0,0,1,.081-.126.316.316,0,0,0,.07-.1.472.472,0,0,1,.083-.246.338.338,0,0,1,.075-.12l.033-.06a1.356,1.356,0,0,1,.418-1.068l.014-.026c.363-.909.708-1.763,1.09-2.627a24.09,24.09,0,0,1,1.691-3.217,3.689,3.689,0,0,0,.681-1.554q.06-.1.121-.2a1.816,1.816,0,0,1,.734-1.1l.054-.073a2.2,2.2,0,0,1,.455-.7q.041-.059.078-.12c-.032-.42.289-.7.475-1.053h.078a1.5,1.5,0,0,1,.067-.155c.1-.129.186-.26.273-.393a3.636,3.636,0,0,1,.6-.97c.095-.154.191-.307.29-.455a2.516,2.516,0,0,1,.182-.254,19.683,19.683,0,0,1,2.908-3.535h.254l.082-.01c.137-.327.445-.518.654-.781a1.433,1.433,0,0,0,.409-1.026,1.291,1.291,0,0,1,1.054-1.39c.254-.073.546,0,.745-.254s.318-.273.173-.355c-.536-.29-.173-.381.082-.527a3.372,3.372,0,0,0,.346-.282,1.409,1.409,0,0,0,.091-.191l-.227.236.227-.236c.909-.182.909-.182.909-1.381a11.1,11.1,0,0,1,3.7-2.726c.245-.909,1.172-1,1.745-1.518a12.605,12.605,0,0,1,1.255-.79A.352.352,0,0,1,41.377,38a.477.477,0,0,1-.11,0,.474.474,0,0,1,.464-.227.471.471,0,0,1-.2.183.326.326,0,0,0,.154-.092h.227c.073-.073.164-.146.236-.227a.429.429,0,0,1,.191-.1.464.464,0,0,1-.1,0,.473.473,0,0,1,.409-.231.5.5,0,0,1,.181-.421c.006-.032.006-.048.055-.048l.236-.227a.794.794,0,0,0,.455-.464.208.208,0,0,1,.265-.021c.148-.226.3-.443.452-.66a6.092,6.092,0,0,0,1.381-2.318c.482-.2.473-.527.236-.909.082-.073.146-.164.227-.236v-.454l1.417-2.327a4.557,4.557,0,0,1,.9-1.035l.025-.037a1.094,1.094,0,0,0,.109-.327,2.553,2.553,0,0,1,.754-1.291,13.422,13.422,0,0,0,2.863-4.089,8.507,8.507,0,0,1,2.635-2.8,11.829,11.829,0,0,0,2.4-2.4c.591-.491,1.354-.8,1.617-1.618,1.237-.345,2.154-1.291,3.3-1.818a1.541,1.541,0,0,1,.582-.291l-.069.088.076-.059-.016,0a4,4,0,0,1,2.2-1.336c.427-.2.863-.354,1.281-.536a.913.913,0,0,1-.01.149,1.152,1.152,0,0,0,.08-.144l-.042-.005a2.335,2.335,0,0,1,1.781-.927.055.055,0,0,1,.036-.019h.227l0,0c.072-.646.594-.771,1.088-.888a6.071,6.071,0,0,1,.99,0,.3.3,0,0,1-.065.089.286.286,0,0,0,.12-.067,1.209,1.209,0,0,1-.1-.086c0-.972.845-.672,1.318-.909l.308-.073a1.262,1.262,0,0,0,.309-.082c.254-.063.5-.155.754-.236a4.27,4.27,0,0,1,.482-.109c.846-.2,1.636-.573,2.49-.718,1.926-.818,3.944-1.363,5.88-2.145a11.954,11.954,0,0,1,4.062-.372,89.136,89.136,0,0,1,9.851.209c3.862.382,7.77.545,11.4,2.172,1.218.545,2.626.327,3.826.963.436.482,1.118.355,1.627.654a.264.264,0,0,1,.015.183h.021a.27.27,0,0,0,.027.051.475.475,0,0,1,.4.231,6.35,6.35,0,0,1,2.607.645c.645.164,1.218.582,1.945.436.073,0,.2.2.3.3l.053.015-.017-.015a2.257,2.257,0,0,1,2.727.7l-.051-.01.014.01a.319.319,0,0,0,.082.062.506.506,0,0,1-.045-.062.462.462,0,0,1,.463.235h-.035a.3.3,0,0,0,.08.06.482.482,0,0,1-.046-.061.465.465,0,0,1,.464.227l-.028,0,.056.013-.01-.015c.245-.109.581-.363.736-.2a1.436,1.436,0,0,0,1.583.29,2.437,2.437,0,0,1,.9-.091l0,0,.013,0a2.451,2.451,0,0,0,1.032-.117,3.011,3.011,0,0,1,.862-.135l.122-.093.364-.182.227-.1.327-.146.2-.1.191-.1.091-.073.164-.136a.734.734,0,0,1,.191-.119l.3-.154.209-.119.318-.164.227-.118.227-.128.245-.136L130.2,10a2.505,2.505,0,0,1,1.046-.572q.176-.109.348-.225a1.764,1.764,0,0,1,.3-.136q.15-.079.3-.155a6.353,6.353,0,0,1,3.048-1.168l.012,0h0c.015-.015.03-.028.046-.042l-.047.005c.236-.464.717-.464,1.154-.464q-.056.044-.115.084c.039-.014.077-.029.115-.047.173-.272.445-.227.7-.227l.008,0c-.012-.022-.024-.044-.035-.068A6.308,6.308,0,0,1,140.1,5.681a3.1,3.1,0,0,0,.99-.254,27.97,27.97,0,0,1,7.488-1.3c.264.019.537.119.773-.082a9.393,9.393,0,0,1,2.072-.236.8.8,0,0,1,.691-.054.317.317,0,0,1,.033.072l.2-.008-.2.2a.307.307,0,0,1-.013.034,1.88,1.88,0,0,1,.181-.175h.464c.042-.018.083-.033.125-.047l-.089.011a2.308,2.308,0,0,1,1.549-.251,4.549,4.549,0,0,0,.753.015l.013-.013c.152-.251.3-.238.456.012h.227l.08-.026h-.08a6.722,6.722,0,0,1,2.544-.691V2.7h.227a2.189,2.189,0,0,1,1.39-.464h.227a6.486,6.486,0,0,1,2.726,0,.394.394,0,0,1,.045.039V2.228c-.127-.254.073-.363.227-.491,1.154-.345,2.318-.645,3.444-1.045a7.6,7.6,0,0,1,3.035-.573,7.224,7.224,0,0,1,3.49.218,4.835,4.835,0,0,0,1.345.254c.063,0,.082.091.063.146a.246.246,0,0,0-.009.037.483.483,0,0,1,.07.032.507.507,0,0,1,.348.231h-.007l.007.009a.206.206,0,0,0,.052.045l-.052-.054h.455l-.078.081a.585.585,0,0,0,.1-.054c.318,0,.672-.1.909.2a.92.92,0,0,1,.227.028,3.2,3.2,0,0,1,1.954.518c1.072.636,2.3.964,3.353,1.645a1.1,1.1,0,0,0,.546.119,1.155,1.155,0,0,1,1.081.7,13.61,13.61,0,0,1,3.062,1,18.831,18.831,0,0,0,3.862,2.145,19.435,19.435,0,0,1,3.753,2.135.85.85,0,0,1,.418.451,4.576,4.576,0,0,1,.472.248,11.751,11.751,0,0,1,3.181,2.6,15.817,15.817,0,0,0,2.726,2.454,22.153,22.153,0,0,1,3.681,4.289c.5,1.127,1.508,1.918,1.981,3.054a5.89,5.89,0,0,0,.209.554l.182.227.209.2.118.109a10.727,10.727,0,0,1,2.526,3.245c.428.8,1.418,1.209,1.527,2.235,0,.119-.055.1.046.073,1.871-.564,1.227,1.227,1.645,1.89a3.536,3.536,0,0,1,.233,2.679l.1.066a1.356,1.356,0,0,1,.263.428c.275.058.577.076.173.635a.212.212,0,0,0-.029.047,7.643,7.643,0,0,0,.338,1.161,1.333,1.333,0,0,1,0,.627,2.19,2.19,0,0,0-.085.325,12.585,12.585,0,0,1,1.025,2.694l.014.026a.762.762,0,0,1,.082.24c.417.19.3.385.047.576l.011.023c.523-.016.724.415.933.824a3.417,3.417,0,0,0,2.189,2.117c1.409.363,2.2,1.672,3.308,2.508.745.718,1.118,1.754,2,2.354.516.3.728.863,1.051,1.294l.067.006.06-.014c.051-.167.212-.138.449-.013v.052a.4.4,0,0,1,.129.175h.08c.091.382.191.755.281,1.136l-.056-.051a.176.176,0,0,0,.11.106,6.777,6.777,0,0,1,1.581,2.553,2.392,2.392,0,0,1,.609,1.314l.009,0a.609.609,0,0,1,.245.209,4.014,4.014,0,0,1,.191.454.7.7,0,0,1,0,.309,1.556,1.556,0,0,0-.112.273,9.01,9.01,0,0,1,.315,1.579,3.544,3.544,0,0,1,.188.5,2.655,2.655,0,0,1,.155.263c.073.136.136.282.2.418a2.639,2.639,0,0,1,.11.3,6.635,6.635,0,0,0,.2.648,4.12,4.12,0,0,1,.377.847,6.571,6.571,0,0,0,.579.9,1.473,1.473,0,0,1,.191.273,53.933,53.933,0,0,1,1.89,5.861c.291,1.054,1.118,1.927,1.072,3.1s.682,1.99.909,3.026a8.2,8.2,0,0,0,.273,1.245c1.008,2.409.909,5.026,1.3,7.534.29,1.718.726,3.562,0,5.452a12.026,12.026,0,0,0-.236,3.19,26.289,26.289,0,0,1-1.118,5.007,1.817,1.817,0,0,0,.227,1.818.947.947,0,0,1,.472.472,3.74,3.74,0,0,1,1.445,1.209,19.792,19.792,0,0,1,2.427,2c1.1,1.372,2.944,1.817,3.762,3.4.354.681,1.172.491,1.636.909a6.888,6.888,0,0,0,.772,1.354,4.066,4.066,0,0,1,.582,1.072,1.054,1.054,0,0,0,.419.69,1.177,1.177,0,0,1,.2.219,3.307,3.307,0,0,1,.236.382l.02.045a.365.365,0,0,1,.17.037c1,1.136,2.217,2.118,2.472,3.744,0,.081,0,.081.155.091.654.054.654.054.837,1.063.109.681,1.017.436,1.2,1.026a1.726,1.726,0,0,1,.164.291,62.783,62.783,0,0,1,2.3,6.17,6.037,6.037,0,0,1,.449,3.357,1.881,1.881,0,0,1,.124.168,1,1,0,0,1,.155.273,1.927,1.927,0,0,1,.1.445v.455q.007.036.016.072c.208.125.194.36.188.59a3.67,3.67,0,0,0,.161.338,1.461,1.461,0,0,1,.091.327q-.009,1.27.073,2.537a14.117,14.117,0,0,0,.318,1.671,2,2,0,0,1-.033,1.051q.025.17.051.339a2.544,2.544,0,0,1,.069.342c.5.33.22.94.14,1.321q-.07.439-.113.882c0,.49,0,.978-.024,1.462a1.665,1.665,0,0,1-.04.249c0,.044,0,.088,0,.133a.145.145,0,0,1-.053.045,5.284,5.284,0,0,0-.173,1.191,2.762,2.762,0,0,1-.073.333,1.37,1.37,0,0,1,.064.5v1.2c-.309.581.082,1.254-.227,1.817l-.009.006a.754.754,0,0,1-.134.594q-.007.145-.012.29a52.827,52.827,0,0,1-3.362,15.449,7.169,7.169,0,0,1-.627,1.672v.409a1.821,1.821,0,0,0-.345.91,25.115,25.115,0,0,0-.827,2.826,1.4,1.4,0,0,1-.654.909q-.051.031-.1.066c.128.59-.278,1.094-.483,1.624a5.465,5.465,0,0,1-.591,1.09c-.3.557-.561,1.132-.819,1.71a.435.435,0,0,1,.111-.083c0,.008,0,.017,0,.025l.226-.234-.226.234a.473.473,0,0,1-.229.43.436.436,0,0,1,0-.1,19.286,19.286,0,0,1-2.413,4.424,9.472,9.472,0,0,0-1.49,2.572,3.158,3.158,0,0,1-1.309,1.6q-.082.129-.172.252a3.057,3.057,0,0,1-.427.726,14.276,14.276,0,0,0-3.362,5.771,3.528,3.528,0,0,1-1.1,2.126,1.816,1.816,0,0,1-1.136.509,3.291,3.291,0,0,0-2.39,1.209c-1.345,1.354-3.163,2-4.7,3.072-.218.155-.464.281-.663.454a11.154,11.154,0,0,1-.981.609l-.273.191-.146.1a13.85,13.85,0,0,1-3.689,1.817c-1.444.51-2.844,1.145-4.262,1.745a27.8,27.8,0,0,1-5.625,1.336,5.062,5.062,0,0,0-.763.072,3.454,3.454,0,0,1-.5.111q-.19.053-.377.12v.142h-.544a3.027,3.027,0,0,1-.448.028,3.332,3.332,0,0,0-.733.081.472.472,0,0,1-.384.127h-.048l-.389.119a2.06,2.06,0,0,1-.409.091h-.267a.055.055,0,0,1-.032.009l-.009.009V200.8l-.115,0c-.043.008-.086.018-.129.029a.491.491,0,0,1-.447.2h-.227l-.011.009h0l-.227.227V201.2l-.02.012c0,.022-.01.03-.053.03v.227c-.082.073-.146.164-.227.236v.236a2.709,2.709,0,0,0-.227.227l-.058.141a1.828,1.828,0,0,0,.131-.141l.016.02.211-.211-.211.211a.726.726,0,0,1-.016.934c-.445.464-.155,1.164-.609,1.663-.227.254.227.718.136,1.117l-.142-.144a.323.323,0,0,0,.069.109v.227a.8.8,0,0,0-.087.188.656.656,0,0,1,.16-.152c.119.482.364.964-.064,1.445a1.976,1.976,0,0,0,.068.6l.014.015a.154.154,0,0,1,.038.044c.1.064.091.135-.038.2v.677a.6.6,0,0,1-.025.182.466.466,0,0,1-.22.3v0l0,0,0,0v.214a.052.052,0,0,0,.019,0v.682l-.021.018h0v.3a.909.909,0,0,1-.436.7c-.014-.032-.026-.063-.038-.094l-.064.036.111.067a4.329,4.329,0,0,1-.8,1.99c-1,1.436-1.654,3.09-2.726,4.48-.636.818-1.327,1.591-1.936,2.427-.29.391-.518.79-.8,1.19-.5,1.136-.846,2.372-2.064,3.017a.912.912,0,0,0-.436.654,3.63,3.63,0,0,1-1.3,2.036,4.766,4.766,0,0,0-1.3,1.817c-.136.373-.272.691-.717.809a1.192,1.192,0,0,0-.7.718c-.082.173-.209.464-.309.464-.763,0-.745.663-1.035,1.063s-1.109.436-1.155,1.163c-1.145.3-1.636,1.4-2.49,2.054a1.719,1.719,0,0,1-1.194.5l-.006.019c-.073.236-.463.218-.69.326a.718.718,0,0,0-.473.818h-.681a.535.535,0,0,1-.131-.165l-1.5.638c-.125.191-.249.227-.369.11a1.318,1.318,0,0,1-.649.407c-.043.027-.073-.012-.1-.051a.183.183,0,0,0-.054-.054.473.473,0,0,1,.031.051h-.128a1.656,1.656,0,0,1-.173.191l-.281.263a.654.654,0,0,1-.218.128,1.194,1.194,0,0,1-.245.055h-.236a1.483,1.483,0,0,0-.336.127l-.227.109-.227.119-.217.1c-.322.293-.6.681-1.126.544q-.046.012-.093.019a.4.4,0,0,1-.191-.064v.028l-.1.1a.468.468,0,0,1-.019.086.487.487,0,0,1-.227.2l-.052.005a2.826,2.826,0,0,1-.878.26l-.051.027-.236.146c-.164.091-.355.109-.519.191l-.381.1a2.9,2.9,0,0,0-.5.109.787.787,0,0,1-.254,0,.653.653,0,0,0-.463.119.409.409,0,0,1-.061.048l.033,0a.717.717,0,0,1-.689.238c-.073,0-.146-.006-.219,0a.6.6,0,0,1,.059-.072l-.031.027a12.992,12.992,0,0,0-3.2,1.072,5.456,5.456,0,0,1-2.326.327c-.1.006-.2,0-.307,0a1.128,1.128,0,0,0-.911.252h-2.006l-.039.036a9.675,9.675,0,0,0-3.517.273c-1.118.463-2.408,0-3.435.818a1.26,1.26,0,0,1-.791.063,17.288,17.288,0,0,0-3.752.282,3.062,3.062,0,0,1-1.818,0c-.291.46-.714.448-1.139.435a1.613,1.613,0,0,0-.8.11.555.555,0,0,1-.327.091,7.8,7.8,0,0,0-1.687-.026c-.289.016-.578.032-.866.032A4.357,4.357,0,0,1,145.539,244.757ZM162,238.482l-.249-.057A.524.524,0,0,0,162,238.482Zm5.944-1.128a.705.705,0,0,0,.295.063,1.823,1.823,0,0,1-.52-.226A.716.716,0,0,0,167.939,237.354Zm9.077-2.275.038-.024-.008-.009-.012,0Zm5.019-5.279q-.04.079-.076.159a2.5,2.5,0,0,1,.307-.112.294.294,0,0,0-.163-.057A.253.253,0,0,0,182.034,229.8Zm6.642.08c0-.007,0-.014,0-.021a.654.654,0,0,0-.227-.5l-.013-.132a1.283,1.283,0,0,1-.078.151c.051.043.079.082.074.123A1.039,1.039,0,0,1,188.677,229.88Zm-131.124-3.8c.073.073,0-.064,0-.064l-.015,0q.007.032.012.065Zm-2.652-.291.061-.013a.39.39,0,0,0-.042-.017Zm-.383-.89.017-.02a3.257,3.257,0,0,1-.543-.176l.014.01.127.082A.809.809,0,0,0,54.517,224.9Zm36.6-1.681h.009l.014,0-.007-.009Zm106.209-.514q.211-.147.432-.281,0-.039.011-.078l.028-.04Q197.553,222.5,197.323,222.706ZM84.3,218.431l-.019-.042-.009.02Zm-15.6-9.74a1.258,1.258,0,0,0,.065-.116A.26.26,0,0,0,68.7,208.692Zm115.5-3.792.007,0c-.06-.027-.122-.051-.186-.072A.8.8,0,0,0,184.207,204.9Zm-42.094-6.67a.155.155,0,0,0,.083.011l-.014-.016A.4.4,0,0,1,142.113,198.229Zm3.281-1.109a.631.631,0,0,0,.177.208q-.081-.1-.167-.208l.006-.013-.016-.007C145.393,197.107,145.393,197.113,145.393,197.12Zm-11.4.011a.428.428,0,0,0,.081,0l.012,0-.018-.015a.275.275,0,0,1-.093.013Zm13.2-.49h0Zm-13.21-.445a.7.7,0,0,1-.154.013C133.873,196.249,133.921,196.255,133.985,196.2Zm1.973-.631.01,0-.009,0Zm4.849-.535a2.938,2.938,0,0,0,.086-.29,1.667,1.667,0,0,0-.089.29Zm-81.19-1.055q-.11-.067-.225-.127A.287.287,0,0,0,59.617,193.977Zm72.022-.827a.125.125,0,0,0-.221-.064Q131.529,193.114,131.639,193.15Zm20.971-.1.023-.009-.019-.026A.127.127,0,0,0,152.609,193.049Zm.209-.091v0l.054-.017-.038-.031-.023.028a.085.085,0,0,1,0,.018Zm-.927-.546a.493.493,0,0,0-.13.148l.044-.021c.062-.067.128-.126.186-.19a.776.776,0,0,1,.191-.155.135.135,0,0,0,.051-.009h-.105l-.015-.025A1.435,1.435,0,0,1,151.891,192.413Zm-39.675.022.008,0,.033-.038A.283.283,0,0,0,112.216,192.434Zm19.8-.107a.255.255,0,0,1,.018-.078v-.035c-.049.006-.045.042-.043.08A.4.4,0,0,0,132.016,192.327Zm-1.879-.092c.038-.077.123-.123.189-.177a1.649,1.649,0,0,0-.227.152Zm30.854-.331a.211.211,0,0,1-.094-.091h.021l-.021-.018-.043.041C160.9,191.881,160.936,191.967,160.991,191.9Zm.112-.331.027,0,0-.015Zm-5.325-.464.038-.031-.054.015Zm-55.019-.926.091-.006a.163.163,0,0,0-.1-.028Zm15.147-.122c-.1-.109-.2-.215-.3-.319a1.191,1.191,0,0,1,.038.181.22.22,0,0,1,.009.066Zm-22.647-.067-.029-.035,0,0-.01,0,.006.006-.006-.006a.337.337,0,0,1-.107-.076A.629.629,0,0,0,93.26,189.995Zm54.5-.248c.008-.014.017-.027.027-.039l-.035,0-.008.007Zm13.878-.206s.082.055.091.046q.035-.041.071-.078l-.163.031Zm-13.736.028.013-.019-.017.019Zm-42.543-.268-.111-.03-.035.033.036-.008A.224.224,0,0,0,105.354,189.3Zm-5.159-.268-.031-.036v.021Zm-.056-.444.025-.009-.019-.019C100.143,188.569,100.141,188.578,100.139,188.588Zm8.6-.246v-.11l-.023.011a.109.109,0,0,1,0,.061A.362.362,0,0,1,108.743,188.342Zm1.927-.1c-.113-.115-.18-.123-.251-.018Q110.545,188.234,110.67,188.246Zm-6.744-.35a.154.154,0,0,0-.012-.042l-.007.005Zm-10.041-1.154v-.027a.063.063,0,0,0-.019-.012S93.866,186.713,93.885,186.742Zm0-.064Zm63.2-.352v0h0Zm-52.223-.507q-.082-.076-.169-.146A.215.215,0,0,0,104.859,185.819ZM91.9,185.38a.316.316,0,0,1-.013-.053l-.01.008A.164.164,0,0,0,91.9,185.38Zm3.889-.605.014-.045-.016.029Zm75.055-.559.044-.023-.049,0Zm-80.288-.081c0-.042,0-.085,0-.128l-.009,0C90.556,184.048,90.556,184.091,90.559,184.134Zm137.017-.276a.547.547,0,0,0,.106-.341,1.628,1.628,0,0,0-.01-.185A2.541,2.541,0,0,0,227.576,183.858Zm-137.135-.115.02.019c0-.013,0-.025,0-.037h.033a1.143,1.143,0,0,0-.033-.167q-.012.079-.028.167h-.016Zm-4.542-.034h0Zm16.437-.051-.01-.026-.019-.006Zm-.327-.068a.84.84,0,0,1,.107-.029q-.085-.031-.171-.06a1.237,1.237,0,0,0-.127.031A.422.422,0,0,1,102.009,183.589Zm-83.176-.234v0h0Zm81.533-.244c.011-.026.022-.052.031-.078q-.55-.25-1.117-.457A10.909,10.909,0,0,1,100.366,183.111Zm-11.316-.066v-.01l.025-.012a.65.65,0,0,1-.027-.064c0,.025,0,.051,0,.076h-.011Zm117.408-.438a.754.754,0,0,1-.047-.108A.262.262,0,0,0,206.459,182.608Zm-126.45-.055-.042.033a1.018,1.018,0,0,0,.106-.015l0,0c-.028-.037-.057-.074-.086-.11C80,182.491,80,182.522,80.008,182.553Zm14.585-.207v0h-.005ZM94.621,182.344Zm-5.422-.063a.634.634,0,0,1,.051-.046.156.156,0,0,1,.182-.046c-.064-.054-.127,0-.182,0l-.014.017Q89.217,182.243,89.2,182.281Zm-.76-.193a.14.14,0,0,0-.025-.162.071.071,0,0,0-.033.037C88.4,182,88.42,182.045,88.44,182.088Zm7.579-.333-.016,0v0Zm-.362-.111q-.062-.024-.125-.045l.016.017.037.028ZM94.4,181.4h.089l-.13-.044.024.029Zm-.7-.209c.033,0,.066-.006.1-.007l-.008,0c-.038-.013-.077-.025-.116-.036.009.011.017.023.025.036h-.008Zm-.859-.218-.052-.016.01.016ZM81.2,180.861l.032-.062h-.007l-.034.009C81.2,180.826,81.2,180.844,81.2,180.861Zm125.046-.406q.008-.315.035-.629C206.068,180.029,206.033,180.27,206.247,180.455Zm-127-1.62a1.183,1.183,0,0,1,.118.14v-.011c-.037-.045-.076-.088-.117-.129l-.046-.091Zm142.963-.11-.015,0Zm-139.524-.2a.06.06,0,0,0-.031-.078.083.083,0,0,0-.02-.008C82.65,178.465,82.667,178.494,82.684,178.523Zm-.339-.033c-.038-.03-.071-.057-.1-.083C82.263,178.479,82.3,178.5,82.344,178.49Zm4.794-.182-.2-.081q-.2-.11-.4-.215.115.081.225.169Q86.955,178.243,87.139,178.308Zm-65.909-.553h.012l-.026-.014-.011,0Zm63.668-.491q.131.031.259.07l-.033-.015q-.17-.1-.346-.194.075.062.146.13h-.035Zm151.89,0a.614.614,0,0,0,.256-.378Q236.924,177.08,236.787,177.264Zm-153.48-.7h.145l-.255-.125a.482.482,0,0,1,.11.125Zm158.116-.055a.3.3,0,0,0-.014-.028l-.022.027Zm-158.415-.164-.037-.018a2.069,2.069,0,0,1-.263-.164q-.117-.083-.236-.164.188.16.363.336a.5.5,0,0,1,.062,0A.472.472,0,0,1,83.007,176.346Zm-5.753-.4a.071.071,0,0,0,.019-.058c0-.011-.01-.015-.019-.013C77.254,175.9,77.254,175.924,77.255,175.949Zm.191-2.117-.184-.131q.017.036.032.074Zm-1.354-.912a.564.564,0,0,0,.235.134l-.315-.215Zm-65.355-.492.034-.016h-.037Zm63.164-.962c0,.164.218.182.373.227l.183.061q-.315-.23-.625-.469A.945.945,0,0,1,73.9,171.466ZM7.322,169.247c0-.011,0-.021,0-.032a.218.218,0,0,0-.034-.039h0A.74.74,0,0,1,7.322,169.247Zm4.185-.045-.028-.026,0,0-.03,0C11.469,169.186,11.487,169.194,11.507,169.2Zm204.755-.039,0,0-.006,0Zm-204.319-.215c-.006.038-.012.075-.019.111a.606.606,0,0,0,.073-.075v-.224a.2.2,0,0,0-.018.087.584.584,0,0,1-.068.1Zm-7.406.011,0-.005h0Zm3.889-.248.048.026v0l0,0,0-.052-.014.016-.077,0Zm172.9-6.573.01,0v-.006Zm-166.1-10.687.05-.01-.044-.069C15.23,151.4,15.228,151.427,15.225,151.453Zm-8.378-6.98,0-.006H6.83Zm1.483-4.147c.031-.167.016-.26-.056-.3A1.157,1.157,0,0,1,8.33,140.326Zm-4.258-1.167.024.027-.015-.036-.013.006ZM.948,134.178a.816.816,0,0,0,.062-.184A.961.961,0,0,0,.948,134.178Zm220.445-.135h0ZM.63,132.1a.849.849,0,0,1,.043-.11l.01-.008-.064.008Zm35.6-.729c0-.033.011-.065.018-.1a1.076,1.076,0,0,1-.129.012ZM10.342,128.8c.006-.013.012-.025.019-.038a.146.146,0,0,0,.045-.055.384.384,0,0,1-.081.055Zm-.017-.038v-.133l-.035.018.035.062v.054Zm22.683-.086.057-.058-.054-.051Q33.011,128.622,33.008,128.677Zm-22.593-.087v0h0Zm21.907-.7-.01-.036-.07-.068Q32.28,127.839,32.321,127.89Zm-14.127-2.743a1.945,1.945,0,0,1-.032-.39A.366.366,0,0,0,18.194,125.148Zm34.961-10.515.084-.073a.5.5,0,0,1-.12,0Zm165.695-9.57.032-.009A.422.422,0,0,0,219,105Zm-195.3-.6c.036.068.072.136.172.023h0l.008-.009,0,0-.014-.015h-.174ZM30.19,83.207l.017-.023v-.007Zm187.4-.044q-.036-.039-.07-.079A.348.348,0,0,0,217.592,83.163Zm-11.43-6.581a.266.266,0,0,0,.154.011q-.09-.066-.184-.126A1.149,1.149,0,0,1,206.162,76.582Zm-2.152-.984a2.179,2.179,0,0,1-.189-.153A.586.586,0,0,0,204.009,75.6ZM42.049,73.62l.006-.009a2.627,2.627,0,0,1-.344,0C41.865,73.739,41.978,73.731,42.049,73.62ZM194.43,71.1a.31.31,0,0,0,.01-.215A1.379,1.379,0,0,1,194.43,71.1Zm-10.215-2.917a.474.474,0,0,0,.337-.21l.034-.046A3.108,3.108,0,0,1,184.215,68.187ZM44.289,68.114a1.531,1.531,0,0,1-.222-.227A.23.23,0,0,0,44.289,68.114Zm138.326-3.878.011,0-.005,0Zm17.6-.059q-.056-.043-.116-.082h0Zm-52.96-8.707c.023-.027.046-.054.069-.079q-.036.025-.069.053Zm.165-.163.027,0-.017-.006Zm45.737-3.6-.071-.05A.214.214,0,0,0,193.158,51.71Zm32.261-.963h0l-.039-.036-.048.03ZM153.5,49.311l.019.01c0-.018.008-.036.014-.055l-.023.008-.039.037Zm15.075-2.047c0-.008,0-.016,0-.025l.041-.023-.021-.035a.3.3,0,0,1-.029.069Zm-127.488-6.9.008.01,0-.015Zm170.392-1.435h.016l-.026-.019Zm-25.508-.1.01.033.03-.033Zm14.41-1.169q.027-.021.056-.039l.046-.021-.055-.025C200.411,37.6,200.4,37.626,200.38,37.655ZM42.691,37.3a1.355,1.355,0,0,1,.106-.142l-.145.14Zm.194-.226-.043.042a.36.36,0,0,1,.061-.042l.012-.009h-.03Zm10.623.017.073-.071-.117-.034A.715.715,0,0,1,53.509,37.1Zm-10.16-.044h0l0,0Zm1.18-.68.056-.056.055-.055.014-.032-.137.137Zm100.819-1.728a.672.672,0,0,1,.2.28.449.449,0,0,0-.319-.367A1.091,1.091,0,0,1,145.348,34.644Zm-3.452.25a.477.477,0,0,0,.062-.042.449.449,0,0,0-.128-.442A1.611,1.611,0,0,1,141.9,34.894ZM102.4,34.128a5.1,5.1,0,0,1-.708-.34A1.629,1.629,0,0,0,102.4,34.128Zm40.169-2.1a.6.6,0,0,0-.438-.432A1.518,1.518,0,0,1,142.571,32.028Zm6.422-2.068.008-.033a.355.355,0,0,0-.2-.382l-.037-.024A1.5,1.5,0,0,1,148.993,29.96Zm35.068-.878.095.076a1.586,1.586,0,0,1-.1-.451C184.029,28.841,183.943,29,184.061,29.082ZM57.325,28.241c-.009-.032-.018-.064-.027-.1l-.035.091A.417.417,0,0,1,57.325,28.241Zm93.012-1.3q0,.04,0,.08a1,1,0,0,0,.01-.3A1.691,1.691,0,0,0,150.337,26.946Zm37.868-.363a.44.44,0,0,0-.044.141.674.674,0,0,1,.089-.2l.019-.033A.523.523,0,0,0,188.205,26.583ZM75.574,20.849c.087.226.226.286.384.264a3.682,3.682,0,0,0-.475-.467A2.062,2.062,0,0,1,75.574,20.849Zm-2.708-1.3a.352.352,0,0,0,.189.19.482.482,0,0,1-.214-.419A.428.428,0,0,0,72.866,19.549Zm63.15-2.872a.3.3,0,0,0,.221-.2,3.7,3.7,0,0,1-.336.2A.458.458,0,0,0,136.015,16.677Zm55.9-2.313a.406.406,0,0,0,.065-.01l-.026-.017A.445.445,0,0,1,191.912,14.364Zm.175-.086a.182.182,0,0,1,.126-.037.111.111,0,0,0-.049-.014A.1.1,0,0,0,192.087,14.279Zm-.9-1.781q.009.049.021.1a1.741,1.741,0,0,1,.131-.423A.328.328,0,0,0,191.186,12.5ZM169.541,10.14a2.135,2.135,0,0,1-.091-.31h0A.373.373,0,0,0,169.541,10.14Zm-60.607-.073.032-.029-.006,0-.026.024S108.934,10.064,108.934,10.067Zm51.191-.193a.283.283,0,0,1-.02-.047l-.033,0Zm12.749-1.226.024-.009-.015,0ZM146.785,5.626a.421.421,0,0,0,.2-.09l-.049.016A.44.44,0,0,1,146.785,5.626Zm14.594-.815a.2.2,0,0,1,.035-.011.174.174,0,0,0-.073-.031C161.355,4.784,161.367,4.8,161.38,4.811Zm-9.292-.7h0l0,0Zm18.521-.077c0-.019-.008-.039-.012-.059L170.584,4Zm-15.6-.353c.027-.01.054-.021.081-.033a.325.325,0,0,1,.023-.028Q155.061,3.651,155.008,3.679Zm16.327-.589a.348.348,0,0,0-.1-.012Zm5.591-1.415-.008-.011h-.025ZM91.832,228.082h.154a.209.209,0,0,1,.092.218v.236A.5.5,0,0,1,91.832,228.082Zm-.227-.245c.2-.055.281,0,.227.227v.009Zm-14.3-2.309c.164-.272.436-.227.7-.227a.558.558,0,0,1-.531.228Zm10.615-.69a.508.508,0,0,1-.236-.455c.363,0,.372.2.236.464Zm119.4-23.355-.227.236ZM21.629,186.969l.236.219Zm-8.315-4.852c.2,0,.281,0,.236.227ZM1.228,136.379ZM251.436,115.15l.218.236ZM14.023,111.207l-.236.236ZM42.2,37.533l-.236.227Zm3.926-5.544-.227.236Z" transform="translate(0 0)"/></g></g></g></svg>